<?xml version="1.0" encoding="UTF-8"?>
<svg id="Capa_1" data-name="Capa 1" xmlns="http://www.w3.org/2000/svg" viewBox="0 0 2673.36 1148.44">
  <defs>
    <style>
      .cls-1 {
        fill: #ffdf50;
      }

      .cls-2 {
        fill: #06d47f;
      }
    </style>
  </defs>
  <path class="cls-1" d="M1344.01,509.41c31.1-26.88,39.15-71.85,19.33-107.85l-103.95-188.74h-136.77c-33.9,0-64.51,16.96-82.8,43.57-7.3,10.62-12.64,22.77-15.46,36l-136.72,643.23h136.77c47.43,0,88.4-33.18,98.26-79.58l68.9-324.13,40.79,74.04,111.66-96.55Z"/>
  <path class="cls-2" d="M1329.35,639.03c-31.1,26.88-39.15,71.85-19.33,107.85l103.95,188.74h136.77c33.9,0,64.51-16.96,82.8-43.57,7.3-10.62,12.64-22.77,15.46-36l136.72-643.23h-136.77c-47.43,0-88.4,33.18-98.26,79.58l-68.9,324.13-40.79-74.04-111.66,96.55Z"/>
  <path class="cls-1" d="M214.75,830.46c-11.51,54.15,29.79,105.16,85.16,105.16h426.57c41.11,0,76.62-28.76,85.16-68.97l23.73-111.76-95.73-114.37,135.3-71.71,37.24-175.16,16.09-75.66c11.51-54.15-29.79-105.16-85.16-105.16h-415.72c-43.1,0-80.89,27.4-94.81,67.24l95.07,113.58-135.3,71.71-77.61,365.1ZM671.91,498.82l-20.35,95.74-86.71,45.96,61.37,73.25-8.72,41.04h-168.5l76.78-361.15h60.98c55.37,0,96.67,51.01,85.16,105.17Z"/>
  <path class="cls-2" d="M2458.6,317.98c11.51-54.15-29.79-105.16-85.16-105.16h-426.57c-41.11,0-76.62,28.76-85.16,68.97l-23.73,111.76,95.73,114.37-135.3,71.71-37.24,175.16-16.09,75.66c-11.51,54.15,29.79,105.16,85.16,105.16h415.72c43.1,0,80.89-27.4,94.81-67.24l-95.07-113.58,135.3-71.71,77.61-365.1ZM2001.45,649.63l20.35-95.74,86.71-45.96-61.37-73.25,8.72-41.04h168.5s-76.78,361.15-76.78,361.15h-60.98c-55.37,0-96.67-51.01-85.16-105.17Z"/>
</svg>